<svg xmlns="http://www.w3.org/2000/svg" viewBox="0 0 24 30" x="0px" y="0px"><title>Billiard, sport, tournament, game, competition</title><g><path d="M12,2A9.9937,9.9937,0,0,0,4.86,5H19.14A9.9937,9.9937,0,0,0,12,2Z"/><path d="M12,22a9.9937,9.9937,0,0,0,7.14-3H4.86A9.9937,9.9937,0,0,0,12,22Z"/><path d="M20.66,7H3.34a9.9984,9.9984,0,0,0,0,10H20.66a9.9984,9.9984,0,0,0,0-10ZM12,16a4,4,0,1,1,4-4A3.9989,3.9989,0,0,1,12,16Z"/><path d="M12,10.5a1,1,0,0,0-1,1v1a1,1,0,0,0,2,0v-1A1,1,0,0,0,12,10.5Z"/></g><text x="0" y="39" fill="#000000" font-size="5px" font-weight="bold" font-family="'Helvetica Neue', Helvetica, Arial-Unicode, Arial, Sans-serif">Created by Haseba Studio</text><text x="0" y="44" fill="#000000" font-size="5px" font-weight="bold" font-family="'Helvetica Neue', Helvetica, Arial-Unicode, Arial, Sans-serif">from the Noun Project</text></svg>